<?xml version="1.0" standalone="no"?>
<!DOCTYPE svg PUBLIC "-//W3C//DTD SVG 20010904//EN"
 "http://www.w3.org/TR/2001/REC-SVG-20010904/DTD/svg10.dtd">
<svg version="1.0" xmlns="http://www.w3.org/2000/svg"
 width="223.000000pt" height="226.000000pt" viewBox="0 0 223.000000 226.000000"
 preserveAspectRatio="xMidYMid meet">
<metadata>
Created by potrace 1.16, written by Peter Selinger 2001-2019
</metadata>
<g transform="translate(0.000000,226.000000) scale(0.100000,-0.100000)"
fill="#000000" stroke="none">
<path d="M544 2178 c-375 -191 -539 -278 -542 -287 -5 -14 73 -20 383 -26 153
-3 280 -7 281 -8 1 -1 -7 -45 -18 -98 -23 -107 -6 -83 -196 -270 -52 -51 -93
-127 -111 -204 -6 -28 -12 -158 -14 -300 -2 -229 0 -257 20 -336 68 -267 229
-443 478 -523 109 -35 188 -46 336 -46 102 0 145 5 225 25 318 81 565 322 656
640 19 68 23 104 23 245 0 141 -3 177 -23 248 -46 168 -117 290 -241 410 -41
39 -78 72 -82 72 -8 0 -29 42 -43 88 -7 22 -6 22 103 22 l109 0 76 86 c42 48
76 90 76 95 0 20 -66 70 -118 89 -113 43 -195 54 -412 54 -174 1 -212 -2 -251
-17 -29 -11 -49 -26 -52 -37 -7 -28 -27 -25 -27 5 0 56 105 84 312 85 263 0
481 -50 550 -126 15 -18 14 -31 -30 -211 -52 -220 -51 -233 17 -254 34 -10 47
-9 85 5 75 29 76 46 21 238 -26 90 -51 170 -56 179 -6 12 12 38 71 105 44 49
78 94 76 99 -2 6 -168 12 -457 16 -250 4 -592 9 -760 12 l-306 5 -159 -80z
m1022 -443 c141 -37 236 -106 322 -233 116 -171 159 -333 149 -560 -7 -147
-28 -235 -86 -350 -124 -246 -351 -415 -627 -468 -118 -22 -313 -15 -434 16
-211 55 -370 178 -453 351 -56 116 -77 209 -84 364 l-5 120 29 -45 c99 -151
245 -148 397 9 177 184 205 447 61 580 -52 48 -135 76 -202 68 l-44 -5 23 25
c39 42 77 56 154 56 70 -1 152 -26 168 -52 4 -6 24 3 53 25 79 60 166 96 278
114 77 12 225 4 301 -15z m-799 -204 c23 -11 55 -37 72 -58 104 -125 68 -349
-81 -508 -148 -158 -296 -154 -369 10 -34 76 -39 239 -10 333 31 102 92 181
173 222 54 27 70 31 119 27 30 -3 74 -14 96 -26z"/>
<path d="M1142 1591 c-70 -24 -118 -65 -155 -130 -57 -100 -49 -265 19 -400
67 -135 193 -223 314 -223 137 2 264 129 292 294 21 119 -38 295 -124 375 -57
52 -90 69 -170 88 -81 19 -111 18 -176 -4z m160 -22 c148 -32 234 -124 274
-295 60 -258 -160 -483 -371 -380 -130 64 -225 233 -225 402 0 113 35 188 111
238 66 44 123 54 211 35z"/>
<path d="M1350 589 c-157 -56 -426 -64 -608 -19 -50 13 -95 20 -99 16 -13 -12
62 -78 121 -107 89 -42 151 -52 310 -47 173 6 235 25 309 98 45 45 61 81 35
79 -7 0 -38 -9 -68 -20z m6 -48 c-9 -10 -45 -32 -79 -47 -61 -28 -65 -29 -237
-29 -158 0 -180 2 -230 23 -54 22 -129 72 -85 57 118 -41 413 -45 555 -7 96
25 96 25 76 3z"/>
</g>
</svg>
