<?xml version="1.0" standalone="no"?>
<!DOCTYPE svg PUBLIC "-//W3C//DTD SVG 20010904//EN"
 "http://www.w3.org/TR/2001/REC-SVG-20010904/DTD/svg10.dtd">
<svg version="1.0" xmlns="http://www.w3.org/2000/svg"
 width="344.000000pt" height="344.000000pt" viewBox="0 0 344.000000 344.000000"
 preserveAspectRatio="xMidYMid meet">
<metadata>
Created by potrace 1.16, written by Peter Selinger 2001-2019
</metadata>
<g transform="translate(0.000000,344.000000) scale(0.100000,-0.100000)"
fill="#000000" stroke="none">
<path d="M1525 3274 c-465 -68 -856 -311 -1109 -689 -229 -342 -313 -771 -230
-1175 22 -107 80 -281 107 -321 20 -29 29 -34 69 -37 40 -3 49 0 68 25 28 35
24 62 -28 213 -52 148 -72 271 -72 435 0 221 48 425 146 619 127 252 346 475
594 605 205 107 367 150 600 158 244 8 433 -30 637 -127 116 -55 246 -136 239
-149 -3 -4 -36 -11 -73 -14 -56 -5 -72 -11 -90 -32 -29 -33 -29 -74 -1 -110
l22 -28 100 7 c56 3 148 12 206 20 132 18 140 26 139 135 0 42 -4 127 -8 189
-10 134 -23 157 -91 157 -65 0 -86 -29 -83 -115 l3 -69 -85 55 c-100 65 -259
142 -369 178 -159 53 -257 67 -466 71 -107 2 -208 1 -225 -1z"/>
<path d="M3015 2375 c-14 -13 -25 -36 -25 -50 0 -14 20 -85 44 -158 56 -166
76 -285 76 -451 0 -155 -19 -280 -61 -414 -131 -410 -437 -732 -844 -887 -263
-100 -599 -111 -880 -30 -147 43 -447 198 -431 224 3 4 36 11 73 14 57 4 71 9
90 32 30 34 29 77 -1 111 -28 33 -33 33 -249 9 -165 -19 -203 -32 -213 -71 -7
-27 12 -352 22 -379 8 -19 55 -45 84 -45 12 0 35 14 52 30 28 28 29 34 26 94
-2 41 1 62 7 58 180 -119 267 -165 414 -216 191 -67 279 -80 521 -80 185 -1
229 2 316 22 341 74 634 244 852 492 328 373 464 870 366 1347 -24 119 -95
325 -121 350 -31 32 -86 31 -118 -2z"/>
<path d="M1667 2350 c-14 -11 -27 -30 -29 -43 -2 -15 -20 -31 -55 -50 -65 -35
-127 -104 -147 -164 -9 -26 -16 -77 -16 -113 0 -54 6 -78 30 -126 37 -74 41
-78 219 -203 79 -55 153 -113 163 -128 35 -54 13 -139 -46 -178 -13 -9 -43
-16 -66 -17 -48 0 -83 21 -118 73 -13 19 -35 40 -48 47 -32 17 -79 7 -99 -21
-49 -70 25 -193 148 -248 18 -8 30 -23 34 -41 7 -35 47 -68 83 -68 34 0 78 33
82 63 2 15 20 31 55 50 147 79 205 253 134 402 -35 73 -62 98 -221 207 -163
112 -175 125 -175 193 0 58 22 92 77 121 55 28 124 5 159 -55 30 -50 47 -61
91 -61 71 0 100 66 62 146 -21 44 -92 108 -138 125 -28 10 -39 20 -43 42 -12
60 -87 86 -136 47z"/>
</g>
</svg>
