<?xml version="1.0" standalone="no"?>
<!DOCTYPE svg PUBLIC "-//W3C//DTD SVG 20010904//EN"
 "http://www.w3.org/TR/2001/REC-SVG-20010904/DTD/svg10.dtd">
<svg version="1.0" xmlns="http://www.w3.org/2000/svg"
 width="344.000000pt" height="344.000000pt" viewBox="0 0 344.000000 344.000000"
 preserveAspectRatio="xMidYMid meet">
<metadata>
Created by potrace 1.16, written by Peter Selinger 2001-2019
</metadata>
<g transform="translate(0.000000,344.000000) scale(0.100000,-0.100000)"
fill="#000000" stroke="none">
<path d="M1626 3299 c-196 -21 -362 -70 -551 -164 -573 -284 -925 -911 -867
-1543 22 -231 72 -407 173 -602 215 -415 613 -721 1069 -820 415 -91 855 -10
1208 223 600 395 859 1130 640 1817 -226 707 -932 1167 -1672 1089z m961 -711
c30 -28 29 -53 -2 -83 l-24 -25 -769 0 c-763 0 -770 0 -796 21 -31 25 -34 61
-6 89 20 20 33 20 797 20 l777 0 23 -22z m7 -280 c21 -30 20 -54 -4 -78 -19
-19 -33 -20 -205 -20 l-185 0 0 -517 c0 -482 2 -521 19 -558 63 -136 219 -142
388 -14 68 51 105 52 132 2 8 -16 8 -28 1 -45 -15 -32 -101 -94 -190 -137 -68
-33 -83 -36 -160 -36 -73 0 -93 4 -142 28 -67 33 -111 80 -147 157 l-26 55 -3
533 -3 532 -244 0 -245 0 0 -47 c-1 -115 -21 -401 -35 -499 -44 -296 -141
-518 -278 -639 -58 -51 -196 -125 -233 -125 -52 0 -84 70 -46 102 9 8 51 31
93 51 236 114 345 408 366 985 l6 172 -226 0 c-222 0 -226 0 -241 22 -21 29
-20 57 1 80 15 17 53 18 804 18 l788 0 15 -22z"/>
</g>
</svg>
